<svg xmlns="http://www.w3.org/2000/svg" viewBox="0 0 6478.2 1541.7"  xmlns:v="https://vecta.io/nano"><path fill="white" d="M740.1 705.4c0 53.1-20.8 100.6-54 128.4-37.9 33.1-93.9 49.8-190 49.8H475c-72.9 0-155.4-7.4-224-25.9v-94.1c0-88 2.9-140.3 34.8-176.9 34-39.6 94.7-58.1 176.2-58.1h40c150.3 0 238.3 60.9 238.3 176.8m142.3 268.8C947.3 914 990 823.3 990 707.2v-10.5c0-233.9-161.6-377.4-489.1-377.4h-58.4c-129 0-251.7 38.5-325.1 99.3C33.1 488.2 0 592.3 0 757.6v337.6c0 231.3 89.8 337.9 230.3 398.8 66.9 28.5 169.1 47.7 301.3 47.7h16c80.9 0 190.1-9.9 296.1-29.2 17.7-2.7 24.7-11.7 24.7-32.4v-150.4c0-19.2-9.6-25.8-31.2-22.5-92.3 13.7-188.2 23.1-261.7 23.1h-11c-103.5 0-187.4-9.1-237.7-43.7-50.7-33.6-75.8-84.2-75.8-194v-32.5c83.1 17 167.7 26.2 252.6 27.4h22.9c140.5 0 272.4-34.5 356.2-113.3m1294.9 520V758.4c0-87.4-8.9-168.9-37-229.9-64.6-140.4-226.9-209.2-424.5-209.2h-75.2c-197.7 0-359.9 68.8-424.6 209.2-28 61.1-36.9 142.5-36.9 229.9V1494c0 15.9 9.5 26.6 25.8 26.6h199c16.3 0 25.5-10.7 25.5-26.6l.6-612.5c0-88.2 2-151.7 6.6-190.8 11.7-102.6 87.5-152.4 233.1-152.4h17.3c145.3 0 221.2 49.8 232.8 152.4 4.6 39.1 6.7 102.6 6.7 190.8l.6 612.5c0 15.9 9.1 26.6 25.5 26.6H2152c16.4 0 25.8-10.7 25.8-26.6m1039.5-563.7c0 67-4.9 114.6-10.8 172.2-19.6 190.8-115.7 221.3-271 221.3h-6.3c-154.6 0-251.7-30.6-270.9-221.3-14.1-114.3-14.1-229.9 0-344.1 19.2-191.6 116.3-221.2 270.9-221.2h6.3c155.4 0 251.4 29.7 271 221.2 5.9 57.6 10.8 105.9 10.8 171.9m253.4 0l-.7-56 .6-.3V22.5c0-15.8-7.9-22.5-25.2-22.5h-201.1c-17.1 0-24.5 6.7-24.5 22.5v341c-73.7-30.3-164.1-44.2-271.6-44.2H2917c-262.3 0-423.9 81.4-485.3 286-24.4 80.1-38 172.2-38 325.1s13.7 245.2 38 325.2c61.4 204.6 222.9 286.1 485.3 286.1h31.2c262.1 0 423.8-81.5 484.8-286.1 24.5-80.1 37.9-172.1 37.9-325.2m539.5-749.1V22.5c0-15.8-7.9-22.5-25.2-22.5h-219.4c-17.1 0-24.5 6.7-24.5 22.5v158.9c0 16.5 7.9 23.1 24.7 23.1h219.4c16.9 0 24.7-6.6 24.7-23.1m.1 1315.9V364.2c0-15.9-7.9-22.6-25.2-22.6h-219.4c-17.1 0-24.5 6.7-24.5 22.6v1133.2c0 16.4 7.9 23.1 24.7 23.1h219.4c16.9 0 24.7-6.7 24.7-23.1m968.2-400.1c0 88-2.9 140.2-34.8 176.9-34 39.7-94.7 58.2-176.2 58.2h-40c-150.2 0-238.3-60.9-238.3-176.9 0-53 20.8-100.6 54-128.3 37.9-33.2 94-49.8 190.1-49.8h21.1c72.8 0 155.4 7.4 224 25.9l.1 94zm251.2 6V765.7c0-231.3-89.7-337.8-230.2-398.8-66.9-28.4-169.1-47.6-301.3-47.6h-16c-80.9 0-190.2 9.9-296.1 29.2-17.7 2.6-24.8 11.7-24.8 32.4v150.3c0 19.2 9.6 25.8 31.2 22.5 92.3-13.7 188.3-23.1 261.7-23.1h10.9c103.4 0 187.4 9.1 237.7 43.7 50.6 33.6 75.7 84.2 75.7 194v32.4c-83.1-16.9-167.7-26-252.5-27.2h-22.9c-140.5 0-272.4 34.5-356.2 113.3-64.7 60.2-107.5 150.9-107.5 267v10.5c0 233.8 161.6 377.4 489.1 377.4h58.5c129 0 251.4-38.5 325.1-99.4 84.3-69.6 117.4-173.7 117.4-339m1248.8 390.6V758.4c0-87.4-8.9-168.9-37-229.9-64.6-140.4-226.9-209.2-424.5-209.2h-75.2c-197.7 0-359.9 68.8-424.6 209.2-28.1 61.1-36.9 142.5-36.9 229.9V1494c0 15.9 9.4 26.6 25.8 26.6h199c16.2 0 25.5-10.7 25.5-26.6l.6-612.5c0-88.2 2-151.7 6.7-190.8 11.7-102.6 87.5-152.4 232.8-152.4h17.3c145.4 0 221.2 49.8 233.1 152.4 4.6 39.1 6.7 102.6 6.7 190.8l.6 612.5c0 15.9 9.1 26.6 25.5 26.6h199c16.4 0 25.8-10.7 25.8-26.6"/></svg>